<svg xmlns="http://www.w3.org/2000/svg" viewBox="0 0 32 32">
  <defs>
    <linearGradient id="g" x1="0%" y1="0%" x2="100%" y2="100%">
      <stop offset="0%" stop-color="#06b6d4"/>
      <stop offset="100%" stop-color="#2563eb"/>
    </linearGradient>
  </defs>
  <circle cx="16" cy="16" r="16" fill="url(#g)"/>
  <path d="M10.5 16c0-2.2 1.6-4 3.8-4 1.2 0 2.2.5 2.9 1.3l-1.4 1.3c-.3-.4-.9-.7-1.5-.7-1.2 0-2 .9-2 2.1s.8 2.1 2 2.1c.6 0 1.1-.3 1.5-.7l1.4 1.3c-.7.8-1.7 1.3-2.9 1.3-2.2 0-3.8-1.8-3.8-4zm7.2 3.8V12.2h2.3l2.2 4.2 2.2-4.2H26v7.6h-1.8v-4.7l-1.9 3.7h-1.4l-1.9-3.7v4.7h-1.8z" fill="white"/>
</svg>
